<?xml version="1.0" encoding="UTF-8"?>
<svg version="1.1" xmlns="http://www.w3.org/2000/svg" width="32" height="32">
<path d="M0 0 C2.77141717 -0.08089542 5.54047819 -0.14044062 8.3125 -0.1875 C9.09818359 -0.21263672 9.88386719 -0.23777344 10.69335938 -0.26367188 C11.45068359 -0.27333984 12.20800781 -0.28300781 12.98828125 -0.29296875 C14.03302612 -0.31653442 14.03302612 -0.31653442 15.09887695 -0.34057617 C17.54489783 0.09761557 18.42702086 1.13437358 20 3 C20.33 2.01 20.66 1.02 21 0 C22.98 0 24.96 0 27 0 C27.08761663 3.54150893 27.14059739 7.08273633 27.1875 10.625 C27.21263672 11.62402344 27.23777344 12.62304688 27.26367188 13.65234375 C27.31857424 19.17918148 27.24225898 23.28398694 24 28 C18.94736842 32 18.94736842 32 15 32 C14.95101563 31.14535156 14.90203125 30.29070313 14.8515625 29.41015625 C14.77679688 28.30542969 14.70203125 27.20070313 14.625 26.0625 C14.55539063 24.96035156 14.48578125 23.85820312 14.4140625 22.72265625 C14.27742188 21.82417969 14.14078125 20.92570312 14 20 C13.34 19.67 12.68 19.34 12 19 C12 22.96 12 26.92 12 31 C10.68 31.33 9.36 31.66 8 32 C4.18031649 29.32622154 1.7921689 27.33925826 0 23 C-0.22705078 20.43457031 -0.22705078 20.43457031 -0.1953125 17.578125 C-0.18564453 16.04091797 -0.18564453 16.04091797 -0.17578125 14.47265625 C-0.15902344 13.40917969 -0.14226562 12.34570312 -0.125 11.25 C-0.11597656 10.17105469 -0.10695312 9.09210937 -0.09765625 7.98046875 C-0.07411305 5.32008722 -0.04122799 2.66015664 0 0 Z M12 5 C12 7.97 12 10.94 12 14 C12.99 13.67 13.98 13.34 15 13 C15 10.69 15 8.38 15 6 C14.01 5.67 13.02 5.34 12 5 Z M20 14 C19.67 14.99 19.34 15.98 19 17 C19.66 17.66 20.32 18.32 21 19 C21 17.35 21 15.7 21 14 C20.67 14 20.34 14 20 14 Z M11 15 C12 18 12 18 12 18 Z " fill="#09BBE6" transform="translate(3,0)"/>
<path d="M0 0 C1.98 0 3.96 0 6 0 C6.08761663 3.54150893 6.14059739 7.08273633 6.1875 10.625 C6.21263672 11.62402344 6.23777344 12.62304688 6.26367188 13.65234375 C6.31857424 19.17918148 6.24225898 23.28398694 3 28 C-2.05263158 32 -2.05263158 32 -6 32 C-6.04898437 31.14535156 -6.09796875 30.29070313 -6.1484375 29.41015625 C-6.22320312 28.30542969 -6.29796875 27.20070313 -6.375 26.0625 C-6.44460937 24.96035156 -6.51421875 23.85820312 -6.5859375 22.72265625 C-6.72257812 21.82417969 -6.85921875 20.92570312 -7 20 C-7.66 19.67 -8.32 19.34 -9 19 C-9 22.96 -9 26.92 -9 31 C-10.32 31.33 -11.64 31.66 -13 32 C-15.25 30.0625 -15.25 30.0625 -17 28 C-15.02 28.66 -13.04 29.32 -11 30 C-11 21.42 -11 12.84 -11 4 C-9.35 4 -7.7 4 -6 4 C-5 5 -5 5 -4.8671875 6.92578125 C-4.86976562 7.71339844 -4.87234375 8.50101563 -4.875 9.3125 C-4.87242188 10.09238281 -4.86984375 10.87226563 -4.8671875 11.67578125 C-5 14 -5 14 -5.5703125 16.23046875 C-5.71210938 16.81441406 -5.85390625 17.39835937 -6 18 C-5.67 18.33 -5.34 18.66 -5 19 C-4.92773498 20.85287502 -4.9161878 22.70833878 -4.9375 24.5625 C-4.94652344 25.57441406 -4.95554687 26.58632813 -4.96484375 27.62890625 C-4.97644531 28.41136719 -4.98804688 29.19382812 -5 30 C-3.78485355 29.01263957 -3.78485355 29.01263957 -3.9375 27.109375 C-3.97889092 25.54686767 -4.02055389 23.98436752 -4.0625 22.421875 C-4 20 -4 20 -3.50390625 17.62890625 C-2.89208549 14.43700416 -2.90469612 11.4350846 -2.9375 8.1875 C-2.94652344 7.02605469 -2.95554687 5.86460937 -2.96484375 4.66796875 C-2.97644531 3.78753906 -2.98804688 2.90710938 -3 2 C-2.34 2.33 -1.68 2.66 -1 3 C-0.67 2.01 -0.34 1.02 0 0 Z M-9 5 C-9 7.97 -9 10.94 -9 14 C-8.01 13.67 -7.02 13.34 -6 13 C-6 10.69 -6 8.38 -6 6 C-6.99 5.67 -7.98 5.34 -9 5 Z M-1 14 C-1.33 14.99 -1.66 15.98 -2 17 C-1.34 17.66 -0.68 18.32 0 19 C0 17.35 0 15.7 0 14 C-0.33 14 -0.66 14 -1 14 Z M-10 15 C-9 18 -9 18 -9 18 Z " fill="#2E7D99" transform="translate(24,0)"/>
<path d="M0 0 C1.32 0 2.64 0 4 0 C4.02901394 3.4374823 4.04680335 6.87493312 4.0625 10.3125 C4.07087891 11.28896484 4.07925781 12.26542969 4.08789062 13.27148438 C4.09111328 14.20927734 4.09433594 15.14707031 4.09765625 16.11328125 C4.10289307 16.97735596 4.10812988 17.84143066 4.11352539 18.73168945 C4 21 4 21 3 24 C2.01 24 1.02 24 0 24 C0 16.08 0 8.16 0 0 Z " fill="#06C1EE" transform="translate(25,0)"/>
</svg>
